<?xml version="1.0" encoding="utf-8"?>
<svg viewBox="0 0 1280 1236" xmlns="http://www.w3.org/2000/svg">
  <ellipse style="stroke: rgb(0, 0, 0);" cx="640" cy="618" rx="502.955" ry="502.955" transform="matrix(0.9999999999999999, 0, 0, 0.9999999999999999, 1.4210854715202004e-14, 0)"/>
  <g transform="matrix(0.066913999617, 0, 0, -0.066913999617, -5642.905767279064, -5601.79773415987)" fill="#000000" stroke="none" style="transform-origin: 6270.49px 6222.32px;">
    <path d="M 2800.822 12570.597 C 2673.155 12538.68 2565.05 12462.492 2491.951 12353.358 C 2449.739 12290.553 2388.994 12129.94 1994.667 11046.831 C 504.878 6953.257 -283.773 4756.152 -307.453 4637.752 C -354.813 4397.862 -194.2 4192.977 92.02 4129.143 C 373.093 4066.34 677.847 4182.681 803.455 4401.98 C 823.016 4435.956 976.422 4885.878 1201.898 5564.366 C 1554.011 6627.912 2867.744 10566.022 2887.306 10619.559 C 2897.602 10646.329 2901.72 10635.003 3544.173 8596.453 C 3975.563 7226.093 4223.689 6466.269 4260.754 6402.436 C 4306.055 6323.16 4431.663 6231.527 4526.383 6206.818 C 4550.063 6201.67 4545.944 6195.492 4457.401 6106.949 C 4298.848 5948.396 4167.063 5739.392 4135.146 5594.223 C 4126.909 5558.188 4117.644 5436.698 4113.525 5324.476 L 4107.348 5121.65 L 4056.899 5090.763 C 3997.183 5053.699 3969.385 5001.191 3960.119 4908.529 C 3950.852 4817.927 3969.385 4775.714 4038.366 4727.324 L 4094.993 4688.2 L 4100.141 4614.071 C 4113.525 4439.044 4249.429 4312.407 4460.49 4276.372 C 4524.324 4266.077 4577.862 4276.372 4619.044 4309.319 L 4646.843 4330.94 L 4751.859 4262.988 C 4809.516 4225.923 4966.01 4125.025 5098.824 4038.542 L 5340.773 3879.987 L 5347.98 3804.828 C 5353.129 3748.202 5361.365 3718.345 5384.015 3682.31 C 5420.051 3624.654 5496.239 3563.909 5572.427 3534.051 C 5641.408 3507.283 5771.135 3498.016 5835.997 3515.519 L 5881.299 3528.904 L 6028.527 3433.154 C 6138.692 3361.084 6183.993 3337.403 6210.761 3337.403 C 6240.619 3336.374 6345.635 3396.089 6814.09 3678.192 C 7450.364 4061.192 7410.212 4029.275 7410.212 4159.001 C 7410.212 4267.107 7385.502 4321.673 7316.521 4365.945 C 7285.634 4385.506 7260.924 4406.099 7260.924 4411.246 C 7260.924 4415.364 7273.278 4475.079 7288.722 4542.001 C 7314.462 4654.225 7316.521 4680.993 7317.55 4900.292 C 7317.55 5134.005 7317.55 5138.123 7288.722 5221.519 C 7222.829 5414.049 7083.837 5557.159 6895.426 5627.17 C 6820.267 5653.938 6822.327 5652.909 6838.8 5673.5 C 6856.302 5694.091 6857.332 5778.516 6839.829 5809.404 C 6832.622 5822.788 6807.913 5841.32 6784.232 5851.616 L 6740.991 5870.148 L 6757.464 6265.504 C 6783.203 6851.329 6802.764 7260.069 6833.652 7906.639 C 6866.598 8567.625 6921.165 9537.481 6926.314 9556.012 C 6928.372 9562.19 6943.816 9570.426 6960.289 9574.545 C 6976.762 9577.633 7003.531 9595.136 7020.004 9611.61 C 7045.743 9638.378 7049.862 9650.733 7049.862 9698.094 C 7049.862 9762.956 7030.299 9789.725 6970.585 9808.258 C 6932.491 9819.583 6917.047 9837.086 6945.875 9837.086 C 6953.082 9837.086 6988.087 9855.617 7022.064 9878.268 C 7098.251 9929.747 7157.967 10014.172 7183.706 10106.833 L 7201.208 10173.755 L 7383.442 10107.863 C 7907.494 9917.392 8884.557 9572.486 8984.426 9541.598 C 9021.491 9531.302 9060.614 9509.681 9081.205 9490.12 C 9116.211 9457.174 9117.241 9455.115 9112.092 9392.31 C 9107.974 9351.128 8952.509 8791.041 8688.939 7870.604 C 7539.937 3862.485 7271.22 2924.545 6926.314 1718.918 C 6720.399 1000.277 6548.461 387.682 6545.371 358.854 C 6536.106 293.991 6554.638 202.36 6588.614 133.378 C 6669.949 -26.205 6901.603 -139.458 7150.76 -139.458 C 7379.324 -139.458 7606.86 -21.057 7695.403 144.703 C 7710.846 173.531 7753.059 305.317 7790.123 438.131 C 7827.188 570.946 7907.494 865.403 7970.299 1093.968 C 8033.102 1321.503 8135.029 1692.149 8196.804 1917.625 C 8259.607 2142.072 8393.452 2632.147 8496.409 3005.881 C 8599.366 3379.616 8733.211 3869.692 8796.014 4095.168 C 8857.789 4319.614 8959.716 4689.23 9021.491 4915.736 C 9084.294 5142.242 9185.192 5511.857 9246.966 5737.334 C 9342.716 6083.27 9556.867 6862.654 9789.55 7711.021 C 9886.33 8061.075 9981.05 8390.538 9988.257 8397.745 C 10000.612 8411.13 10339.341 7349.642 10905.605 5518.035 C 11438.923 3795.563 11747.795 2834.972 11788.977 2770.11 C 11886.787 2614.644 12123.588 2504.48 12324.354 2521.983 C 12475.701 2534.338 12615.723 2600.23 12728.975 2712.454 C 12822.667 2805.115 12855.613 2876.156 12856.642 2985.29 C 12856.642 3066.626 12846.346 3099.572 12096.819 5420.226 C 11677.783 6714.397 11307.138 7863.397 11271.103 7973.562 C 11235.068 8083.726 11094.017 8519.234 10957.084 8941.359 C 10820.151 9363.482 10694.543 9736.188 10677.04 9770.163 C 10580.261 9963.723 10391.849 10139.78 10154.019 10259.209 C 10096.362 10288.038 9926.483 10347.752 9659.825 10431.148 C 9003.988 10637.062 7783.946 11028.299 7003.531 11283.633 C 6875.864 11324.815 6669.949 11391.737 6545.371 11432.921 C 6420.793 11473.074 6207.672 11543.085 6071.769 11587.356 C 5683.621 11713.994 4914.531 11965.208 4481.082 12105.23 C 4262.813 12176.271 3999.243 12261.725 3894.226 12295.701 C 3789.21 12329.677 3629.627 12382.185 3539.024 12411.013 C 3448.422 12439.841 3296.045 12490.29 3199.266 12521.177 C 3001.588 12586.04 2906.867 12597.365 2800.822 12570.597 Z M 4460.49 11166.262 L 4929.975 10999.471 L 4929.975 10853.272 C 4929.975 10655.595 4958.803 10550.578 5037.051 10461.006 C 5061.76 10433.207 5064.849 10424.971 5052.494 10419.823 C 5029.844 10411.586 4995.867 10350.841 4995.867 10317.895 C 4995.867 10264.358 5024.695 10222.145 5075.144 10199.495 L 5122.505 10178.903 L 5120.445 10078.005 C 5119.416 10021.379 5110.15 9649.703 5098.824 9250.23 C 5087.5 8850.756 5074.115 8346.267 5067.937 8127.997 C 5062.789 7909.728 5054.553 7678.075 5050.435 7613.212 L 5044.258 7494.811 L 4921.738 7865.457 C 4088.816 10380.699 3750.087 11406.151 3750.087 11414.388 C 3750.087 11417.477 3804.653 11399.974 3871.576 11376.294 C 3937.468 11352.614 4203.098 11257.894 4460.49 11166.262 Z M 5320.182 10858.42 L 5454.027 10809.001 L 5450.938 10752.374 C 5448.879 10721.487 5437.553 10676.186 5426.228 10650.446 L 5404.608 10604.116 L 5397.401 10651.476 C 5386.075 10719.428 5362.394 10758.552 5319.153 10779.143 C 5273.851 10800.764 5225.462 10794.587 5181.19 10763.7 L 5150.303 10742.079 L 5150.303 10830.622 C 5150.303 10910.928 5152.362 10919.165 5168.836 10912.988 C 5178.101 10909.899 5247.083 10885.188 5320.182 10858.42 Z M 6080.006 10581.466 L 6468.154 10439.385 L 6461.977 10357.019 C 6454.77 10267.446 6469.184 10137.72 6494.923 10062.561 C 6515.514 9999.758 6568.022 9926.658 6620.53 9887.534 C 6644.211 9870.031 6663.772 9852.529 6663.772 9849.44 C 6663.772 9845.322 6645.24 9835.026 6623.619 9825.76 C 6570.081 9803.109 6545.371 9762.956 6546.401 9701.182 C 6547.431 9642.496 6568.022 9614.698 6625.678 9599.254 L 6665.832 9588.959 L 6659.654 9483.943 C 6651.418 9357.305 6488.745 5929.863 6488.745 5890.74 C 6488.745 5868.089 6482.568 5861.912 6449.621 5853.675 C 6428 5847.498 6397.114 5827.936 6380.641 5810.433 C 6353.871 5783.664 6349.753 5772.339 6350.783 5723.949 L 6352.842 5669.382 L 6312.689 5663.205 C 6190.17 5643.642 5987.344 5539.655 5862.766 5433.61 L 5807.17 5386.25 L 5815.406 5446.994 C 5828.791 5548.922 5823.643 5799.108 5806.14 5879.414 C 5769.075 6052.383 5647.586 6196.522 5463.293 6288.154 C 5409.755 6313.893 5401.518 6322.13 5405.636 6342.721 C 5415.932 6400.377 5361.365 6480.683 5310.916 6480.683 C 5267.674 6480.683 5263.556 6493.039 5280.029 6551.724 C 5292.384 6592.907 5294.443 6625.854 5289.295 6689.687 C 5284.147 6736.018 5282.088 6848.24 5282.088 6938.843 C 5283.118 7092.249 5288.265 7261.098 5315.035 8172.269 C 5321.212 8365.828 5336.656 8895.028 5351.07 9348.039 L 5375.78 10171.696 L 5399.459 10187.139 C 5412.843 10195.376 5436.524 10214.938 5451.967 10231.411 C 5477.707 10256.121 5480.795 10265.387 5477.707 10308.629 C 5474.618 10335.398 5469.47 10364.226 5465.351 10372.462 C 5460.204 10383.787 5472.558 10399.231 5506.535 10423.941 C 5571.398 10473.36 5628.024 10561.903 5650.674 10650.446 C 5660.971 10689.57 5674.355 10722.516 5680.532 10722.516 C 5685.68 10722.516 5865.855 10658.683 6080.006 10581.466 Z M 6844.977 10302.452 L 6982.94 10254.062 L 6982.94 10209.79 C 6982.94 10185.081 6973.673 10146.987 6961.319 10122.277 C 6940.727 10082.124 6937.638 10081.094 6927.342 10099.626 C 6921.165 10110.952 6901.603 10134.631 6884.1 10153.164 C 6856.302 10180.962 6843.948 10187.139 6806.883 10187.139 C 6780.114 10187.139 6748.198 10178.903 6728.635 10167.578 L 6696.719 10146.987 L 6685.393 10211.849 C 6679.216 10246.855 6674.068 10296.274 6674.068 10319.954 C 6674.068 10355.989 6677.156 10363.196 6690.542 10358.048 C 6699.807 10354.959 6768.789 10330.25 6844.977 10302.452 Z M 5023.665 5893.828 C 5059.701 5866.03 5149.273 5866.03 5207.959 5894.858 C 5249.142 5914.419 5253.26 5914.419 5277.97 5898.977 C 5292.384 5889.71 5314.005 5859.853 5327.389 5834.113 C 5346.951 5792.93 5351.07 5766.162 5354.158 5654.968 C 5356.217 5581.869 5355.187 5523.183 5351.07 5523.183 C 5346.951 5523.183 5304.739 5546.862 5256.349 5574.662 C 5196.634 5609.667 5157.51 5626.14 5132.801 5626.14 C 5107.061 5626.14 5036.021 5595.253 4891.88 5522.153 C 4778.628 5464.498 4683.908 5420.226 4680.819 5423.314 C 4655.08 5449.054 4741.564 5627.17 4848.639 5768.22 C 4897.029 5832.054 4979.394 5914.419 4993.808 5914.419 C 4995.867 5914.419 5009.251 5905.154 5023.665 5893.828 Z M 6751.286 5202.986 C 6809.971 5151.507 6814.09 5120.62 6793.499 4893.085 C 6783.203 4783.951 6773.936 4693.349 6771.878 4691.289 C 6768.789 4688.2 6192.229 5023.841 6180.904 5035.166 C 6173.697 5042.373 6273.565 5141.212 6321.955 5175.188 L 6367.256 5206.075 L 6394.025 5180.335 C 6436.237 5141.212 6461.977 5131.946 6522.722 5131.946 C 6568.022 5131.946 6586.555 5137.093 6620.53 5162.833 C 6644.211 5180.335 6668.921 5202.986 6676.128 5214.312 C 6693.63 5242.11 6708.044 5240.051 6751.286 5202.986 Z" style="fill: rgb(255, 255, 255);"/>
  </g>
</svg>