<!DOCTYPE svg PUBLIC "-//W3C//DTD SVG 1.1//EN" "http://www.w3.org/Graphics/SVG/1.1/DTD/svg11.dtd">
<!-- Uploaded to: SVG Repo, www.svgrepo.com, Transformed by: SVG Repo Mixer Tools -->
<svg fill="#ffffff" width="180px" height="180px" viewBox="-3.12 -3.12 30.24 30.24" xmlns="http://www.w3.org/2000/svg" stroke="#ffffff" stroke-width="0.00024000000000000003">
<g id="SVGRepo_bgCarrier" stroke-width="0" transform="translate(0,0), scale(1)">
<rect x="-3.12" y="-3.12" width="30.24" height="30.24" rx="15.12" fill="#000000" strokewidth="0"/>
</g>
<g id="SVGRepo_tracerCarrier" stroke-linecap="round" stroke-linejoin="round" stroke="#CCCCCC" stroke-width="0.336"/>
<g id="SVGRepo_iconCarrier">
<path d="M21,9H9V3A2,2,0,0,0,7,1H3A2,2,0,0,0,1,3V9a5.006,5.006,0,0,0,5,5H7.073A7.061,7.061,0,0,0,11,19.319l-.925,2.31A1,1,0,0,0,11,23h8a1,1,0,0,0,.929-1.371L19,19.319A7.045,7.045,0,0,0,23,13V11A2,2,0,0,0,21,9Zm0,2v1H9V11ZM3,9V3H7v9H6A3,3,0,0,1,3,9Zm14.417,8.793a1,1,0,0,0-.645,1.33L17.523,21H12.477l.751-1.877a1,1,0,0,0-.645-1.33A5.034,5.034,0,0,1,9.1,14H20.9A5.034,5.034,0,0,1,17.417,17.793Z"/>
</g>
</svg>